<?xml version="1.0" encoding="utf-8"?>
<!-- Generator: Adobe Illustrator 20.0.0, SVG Export Plug-In . SVG Version: 6.00 Build 0)  -->
<svg version="1.1" id="Laag_1" xmlns="http://www.w3.org/2000/svg" xmlns:xlink="http://www.w3.org/1999/xlink" x="0px" y="0px"
	 viewBox="0 0 500 200" style="enable-background:new 0 0 500 200;" xml:space="preserve">
<style type="text/css">
	.st0{fill:#8D8E87;}
	.st1{font-family:'BigJohn';}
	.st2{font-size:12px;}
	.st3{fill:#BFCFD8;}
	.st4{fill:#384D56;}
	.st5{font-size:41.5184px;}
	.st6{fill:#FFFFFF;}
</style>
<text transform="matrix(1 0 0 1 117.5781 130.8106)" class="st0 st1 st2">Logopediste - stottertherapeute - Audiologe</text>
<circle class="st3" cx="66" cy="95.5" r="35"/>
<text transform="matrix(1 0 0 1 115.2725 111.2861)" class="st4 st1 st5">Lisa Declercq</text>
<rect x="65.3" y="94.8" class="st3" width="35.6" height="35.6"/>
<path class="st6" d="M86.3,113.9c0,0-3.8-2.4-6.4-6c3-3.3,4.8-7.7,4.8-12.5c0-10.3-8.3-18.6-18.6-18.6c-10.3,0-18.6,8.3-18.6,18.6
	c0,10.3,8.3,18.6,18.6,18.6c3.3,0,6.4-0.9,9.1-2.4C78,112.7,81.6,113.5,86.3,113.9z"/>
<path class="st4" d="M83.6,95.4c0,9.8-7.9,17.7-17.6,17.7c-9.6,0-17.5-7.9-17.6-17.6c0-9.7,7.9-17.6,17.6-17.6
	C75.7,77.9,83.5,85.7,83.6,95.4z M58.1,98.5c1.4,0.4,2.6,0.8,3.9,1.2c0.8,0.2,1.3,0.8,0.8,1.5c-0.7,1.2-0.5,2.4-0.5,3.7
	c0.1,2.2-0.5,2.9-2.7,3c-1.4,0.1-2.7,0-4.1,0c0,0,0,0,0,0c5.2,4.8,14.9,5.1,20.3,0.5c0.2-0.2,0.4-0.5,0.4-0.7
	c-0.1-1.1-0.3-2.2-0.4-3.2c-1.7-0.2-2.8-1.1-3.4-2.5c-0.3-0.7-0.6-1.4-1-2c-1.4-2-2.2-4.2-2-6.6c0.1-1.4,0.8-2.2,2.1-2.6
	c0.2-0.1,0.4-0.2,0.7-0.3c-1-3.4-1.5-6.9-0.3-10.3c-3.8-1.4-7.4-1.5-11.2-0.3c0.2,0.3,0.3,0.6,0.4,0.8c1.7,2.8,3.4,5.6,5.1,8.4
	c0.7,1.1,0.5,1.7-0.6,2.3c-1.1,0.6-2.1,1.2-3.3,1.8c0.1,0.4,0.3,0.7,0.4,1c0.6,1.6,0.5,2-1.1,2.8C60.6,97.6,59.5,98,58.1,98.5z"/>
<path class="st4" d="M68.3,98.5c0.1,1.5-0.6,2.7-1.5,3.9c-0.1,0.2-0.4,0.2-0.6,0.3c0-0.3,0-0.6,0.1-0.8c0.4-0.9,1-1.8,1.2-2.8
	c0.4-1.5-0.2-2.8-1.1-4c-0.1-0.2-0.1-0.5-0.2-0.8c0.3,0.1,0.6,0.2,0.8,0.4C67.8,95.8,68.4,97,68.3,98.5z"/>
<path class="st4" d="M66.8,98.4c-0.4,1-0.7,1.8-1.1,2.7c-0.1,0.2-0.5,0.2-0.8,0.3c0-0.2,0-0.5,0.1-0.7c1.1-1.5,1-3,0-4.5
	C65,96,65,95.8,64.9,95.5c0.2,0.1,0.6,0.1,0.7,0.3C66.1,96.7,66.4,97.5,66.8,98.4z"/>
<path class="st4" d="M63.6,96.6c1.2,0.3,1.3,1.2,1.3,1.8c0,0.6-0.4,1.2-0.7,1.9c0,0.1-0.3,0.1-0.4,0c-0.1-0.1-0.2-0.3-0.2-0.4
	c0.1-0.6,0.5-1.1,0.5-1.6C64.1,97.8,63.8,97.3,63.6,96.6z"/>
</svg>
